# xmcd
#
# Track frame offsets:
#	150
#	21099
#	40166
#	54823
#	73400
#	97886
#	112518
#	133395
#	150326
#	163728
#	181232
#	199051
#
# Disc length: 2832 seconds
#
# Revision: 0
# Processed by: cddbd v1.4PL0 Copyright (c) Steve Scherf et al.
# Submitted via: EasyCDDAExtractor 4.6.9.1
#
DISCID=940b0e0c
DTITLE=Pat Haney - Ghost of Things to Come
DYEAR=2001
DGENRE=Country
TTITLE0=Ghost Of Things To Come
TTITLE1='Licts
TTITLE2=Nursing Home
TTITLE3=Out Last Night
TTITLE4=Hey There Mister
TTITLE5=Fifteen Years
TTITLE6=Like My Daddy Did
TTITLE7=Bathtub Song
TTITLE8=Here Without You
TTITLE9=Nothin' But You
TTITLE10=Come On Back To Bowling Green
TTITLE11=Southern Witch
EXTD=
EXTT0=
EXTT1=
EXTT2=
EXTT3=
EXTT4=
EXTT5=
EXTT6=
EXTT7=
EXTT8=
EXTT9=
EXTT10=
EXTT11=
PLAYORDER=
